<svg xmlns="http://www.w3.org/2000/svg" viewBox="0 0 128 128">
  <!-- Yellow background -->
  <rect width="128" height="128" fill="#FFD600"/>
  
  <!-- Pixelated dollar sign in black -->
  <!-- Top bar -->
  <rect x="52" y="12" width="24" height="8" fill="#000"/>
  
  <!-- Left top -->
  <rect x="44" y="20" width="8" height="8" fill="#000"/>
  <rect x="36" y="28" width="8" height="8" fill="#000"/>
  <rect x="28" y="36" width="8" height="8" fill="#000"/>
  
  <!-- Right top -->
  <rect x="76" y="20" width="8" height="8" fill="#000"/>
  <rect x="84" y="28" width="8" height="8" fill="#000"/>
  <rect x="92" y="36" width="8" height="8" fill="#000"/>
  
  <!-- Middle bar -->
  <rect x="20" y="44" width="88" height="8" fill="#000"/>
  <rect x="28" y="52" width="72" height="8" fill="#000"/>
  
  <!-- Left bottom -->
  <rect x="28" y="68" width="8" height="8" fill="#000"/>
  <rect x="36" y="76" width="8" height="8" fill="#000"/>
  <rect x="44" y="84" width="8" height="8" fill="#000"/>
  
  <!-- Right bottom -->
  <rect x="92" y="68" width="8" height="8" fill="#000"/>
  <rect x="84" y="76" width="8" height="8" fill="#000"/>
  <rect x="76" y="84" width="8" height="8" fill="#000"/>
  
  <!-- Bottom bar -->
  <rect x="52" y="92" width="24" height="8" fill="#000"/>
  
  <!-- Center vertical bar -->
  <rect x="56" y="20" width="16" height="88" fill="#000"/>
</svg>